# xmcd
#
# Track frame offsets:
#	150
#	22352
#	44052
#	60622
#	85661
#	96419
#	111735
#	122030
#	139192
#	156609
#	167222
#	185997
#	202797
#
# Disc length: 2930
#
# Revision: 2
# Processed by: cddbd v1.5.1PL0 Copyright (c) Steve Scherf et al.
# Submitted via: CDex 1.50
# Normalized: r0:TSWAP
#
DISCID=cd0b700d
DTITLE=Variuos Artists - Celebrate - The Ultimate Party Album
DYEAR=2003
DGENRE=Rhythmic Soul
TTITLE0=Kool and the Gang - Celebration
TTITLE1=Earth, Wind and Fire - Boogie Wonderland
TTITLE2=The O'Jays - I Love Music
TTITLE3=Peaches and Herb - Shake Your Groove Thing
TTITLE4=Chubby Checker - Let's Twist Again
TTITLE5=Gypsy Kings - Bamboleo
TTITLE6=Los Lobos - La Bamba
TTITLE7=The Pretenders - Don't Get Me Wrong
TTITLE8=The Pointer Sisters - I'm So Excited
TTITLE9=Arthur Conley - Sweet Soul Music
TTITLE10=Buster Poindexter - Hot Hot Hot
TTITLE11=The Jacksons - Shake Your Body (Down to the Ground)
TTITLE12=Kenny Loggins - Footloose
EXTD=YEAR: 2003
EXTT0=
EXTT1=
EXTT2=
EXTT3=
EXTT4=
EXTT5=
EXTT6=
EXTT7=
EXTT8=
EXTT9=
EXTT10=
EXTT11=
EXTT12=
PLAYORDER=
